<svg width="200" height="26" viewBox="0 0 200 26" fill="none" xmlns="http://www.w3.org/2000/svg">
<path d="M11.7238 7.54545V11.6364H0.496538V7.54545H11.7238ZM2.83745 25V6.65909C2.83745 5.31061 3.09123 4.19318 3.59881 3.30682C4.10639 2.41288 4.81093 1.74621 5.71245 1.30682C6.61396 0.859847 7.65563 0.636362 8.83745 0.636362C9.61017 0.636362 10.3374 0.696969 11.0193 0.818182C11.7087 0.931818 12.22 1.03409 12.5534 1.125L11.667 5.19318C11.4624 5.125 11.2124 5.06818 10.917 5.02273C10.6291 4.97727 10.3564 4.95454 10.0988 4.95454C9.4473 4.95454 9.00033 5.09848 8.7579 5.38636C8.51548 5.67424 8.39427 6.06818 8.39427 6.56818V25H2.83745ZM18.6301 25.2955C17.5164 25.2955 16.5278 25.1098 15.6642 24.7386C14.8081 24.3598 14.1301 23.7917 13.6301 23.0341C13.1376 22.2689 12.8914 21.3106 12.8914 20.1591C12.8914 19.1894 13.0619 18.3712 13.4028 17.7045C13.7437 17.0379 14.2134 16.4962 14.8119 16.0795C15.4104 15.6629 16.0998 15.3485 16.8801 15.1364C17.6604 14.9167 18.4937 14.7689 19.3801 14.6932C20.3725 14.6023 21.1717 14.5076 21.7778 14.4091C22.3838 14.303 22.8232 14.1553 23.096 13.9659C23.3763 13.7689 23.5164 13.4924 23.5164 13.1364V13.0795C23.5164 12.4962 23.3157 12.0455 22.9142 11.7273C22.5126 11.4091 21.971 11.25 21.2892 11.25C20.5543 11.25 19.9634 11.4091 19.5164 11.7273C19.0695 12.0455 18.7854 12.4848 18.6642 13.0455L13.5392 12.8636C13.6907 11.803 14.0808 10.8561 14.7096 10.0227C15.346 9.18182 16.2172 8.52273 17.3232 8.04545C18.4369 7.56061 19.774 7.31818 21.3346 7.31818C22.4482 7.31818 23.4748 7.45076 24.4142 7.71591C25.3535 7.97348 26.1717 8.35227 26.8687 8.85227C27.5657 9.3447 28.1035 9.95076 28.4823 10.6705C28.8687 11.3902 29.0619 12.2121 29.0619 13.1364V25H23.8346V22.5682H23.6982C23.3876 23.1591 22.9899 23.6591 22.5051 24.0682C22.0278 24.4773 21.4634 24.7841 20.8119 24.9886C20.1679 25.1932 19.4407 25.2955 18.6301 25.2955ZM20.346 21.6591C20.9445 21.6591 21.4823 21.5379 21.9596 21.2955C22.4445 21.053 22.8308 20.7197 23.1187 20.2955C23.4066 19.8636 23.5505 19.3636 23.5505 18.7955V17.1364C23.3914 17.2197 23.1982 17.2955 22.971 17.3636C22.7513 17.4318 22.5088 17.4962 22.2437 17.5568C21.9785 17.6174 21.7058 17.6705 21.4255 17.7159C21.1452 17.7614 20.8763 17.803 20.6187 17.8409C20.096 17.9242 19.649 18.053 19.2778 18.2273C18.9142 18.4015 18.6338 18.6288 18.4369 18.9091C18.2475 19.1818 18.1528 19.5076 18.1528 19.8864C18.1528 20.4621 18.3573 20.9015 18.7664 21.2045C19.1831 21.5076 19.7096 21.6591 20.346 21.6591ZM40.6073 25.3295C38.7664 25.3295 37.1869 24.9508 35.8687 24.1932C34.5581 23.4356 33.5505 22.3826 32.846 21.0341C32.1414 19.678 31.7892 18.1098 31.7892 16.3295C31.7892 14.5417 32.1414 12.9735 32.846 11.625C33.5581 10.2689 34.5695 9.21212 35.8801 8.45454C37.1982 7.69697 38.7702 7.31818 40.596 7.31818C42.2096 7.31818 43.6149 7.60985 44.8119 8.19318C46.0164 8.77651 46.9558 9.60227 47.6301 10.6705C48.3119 11.7311 48.6717 12.9773 48.7096 14.4091H43.5164C43.4104 13.5152 43.1073 12.8144 42.6073 12.3068C42.1149 11.7992 41.471 11.5455 40.6755 11.5455C40.0316 11.5455 39.4672 11.7273 38.9823 12.0909C38.4975 12.447 38.1187 12.9773 37.846 13.6818C37.5808 14.3788 37.4482 15.2424 37.4482 16.2727C37.4482 17.303 37.5808 18.1742 37.846 18.8864C38.1187 19.5909 38.4975 20.125 38.9823 20.4886C39.4672 20.8447 40.0316 21.0227 40.6755 21.0227C41.1907 21.0227 41.6452 20.9129 42.0392 20.6932C42.4407 20.4735 42.7702 20.1515 43.0278 19.7273C43.2854 19.2955 43.4482 18.7727 43.5164 18.1591H48.7096C48.6566 19.5985 48.2967 20.8561 47.6301 21.9318C46.971 23.0076 46.0429 23.8447 44.846 24.4432C43.6566 25.0341 42.2437 25.3295 40.6073 25.3295ZM59.7124 25.3295C57.8867 25.3295 56.3109 24.9697 54.9852 24.25C53.667 23.5227 52.6518 22.4886 51.9397 21.1477C51.2352 19.7992 50.8829 18.197 50.8829 16.3409C50.8829 14.5379 51.239 12.9621 51.9511 11.6136C52.6632 10.2576 53.667 9.20454 54.9624 8.45454C56.2579 7.69697 57.7844 7.31818 59.542 7.31818C60.7844 7.31818 61.9208 7.51136 62.9511 7.89773C63.9814 8.28409 64.8715 8.85606 65.6215 9.61364C66.3715 10.3712 66.9549 11.3068 67.3715 12.4205C67.7882 13.5265 67.9965 14.7955 67.9965 16.2273V17.6136H52.8261V14.3864H62.8261C62.8185 13.7955 62.6784 13.2689 62.4056 12.8068C62.1329 12.3447 61.7579 11.9848 61.2806 11.7273C60.8109 11.4621 60.2693 11.3295 59.6556 11.3295C59.0344 11.3295 58.4776 11.4697 57.9852 11.75C57.4927 12.0227 57.1026 12.3977 56.8147 12.875C56.5268 13.3447 56.3753 13.8788 56.3602 14.4773V17.7614C56.3602 18.4735 56.5003 19.0985 56.7806 19.6364C57.0609 20.1667 57.4587 20.5795 57.9738 20.875C58.489 21.1705 59.1026 21.3182 59.8147 21.3182C60.3071 21.3182 60.7541 21.25 61.1556 21.1136C61.5571 20.9773 61.9018 20.7765 62.1897 20.5114C62.4776 20.2462 62.6935 19.9205 62.8374 19.5341L67.9397 19.6818C67.7276 20.8258 67.2617 21.822 66.542 22.6705C65.8299 23.5114 64.8943 24.1667 63.7352 24.6364C62.5761 25.0985 61.2352 25.3295 59.7124 25.3295ZM70.8346 25V1.72727H76.3914V10.5341H76.5051C76.7323 10.0038 77.0543 9.49242 77.471 9C77.8952 8.50758 78.4331 8.10606 79.0846 7.79545C79.7437 7.47727 80.5316 7.31818 81.4482 7.31818C82.6604 7.31818 83.7929 7.63636 84.846 8.27273C85.9066 8.90909 86.7626 9.89015 87.4142 11.2159C88.0657 12.5417 88.3914 14.2311 88.3914 16.2841C88.3914 18.2614 88.077 19.9167 87.4482 21.25C86.827 22.5833 85.9861 23.5833 84.9255 24.25C83.8725 24.9167 82.702 25.25 81.4142 25.25C80.5354 25.25 79.774 25.1061 79.1301 24.8182C78.4861 24.5303 77.9445 24.1515 77.5051 23.6818C77.0732 23.2121 76.7399 22.7083 76.5051 22.1705H76.3346V25H70.8346ZM76.2778 16.2727C76.2778 17.2121 76.4028 18.0303 76.6528 18.7273C76.9104 19.4242 77.2778 19.9659 77.7551 20.3523C78.2399 20.7311 78.8195 20.9205 79.4937 20.9205C80.1755 20.9205 80.7551 20.7311 81.2323 20.3523C81.7096 19.9659 82.0695 19.4242 82.3119 18.7273C82.5619 18.0303 82.6869 17.2121 82.6869 16.2727C82.6869 15.3333 82.5619 14.5189 82.3119 13.8295C82.0695 13.1402 81.7096 12.6061 81.2323 12.2273C80.7626 11.8485 80.1831 11.6591 79.4937 11.6591C78.8119 11.6591 78.2323 11.8447 77.7551 12.2159C77.2778 12.5871 76.9104 13.1174 76.6528 13.8068C76.4028 14.4962 76.2778 15.3182 76.2778 16.2727ZM99.4511 25.3295C97.6177 25.3295 96.042 24.9545 94.7238 24.2045C93.4132 23.447 92.4018 22.3939 91.6897 21.0455C90.9852 19.6894 90.6329 18.1174 90.6329 16.3295C90.6329 14.5341 90.9852 12.9621 91.6897 11.6136C92.4018 10.2576 93.4132 9.20454 94.7238 8.45454C96.042 7.69697 97.6177 7.31818 99.4511 7.31818C101.284 7.31818 102.856 7.69697 104.167 8.45454C105.485 9.20454 106.497 10.2576 107.201 11.6136C107.913 12.9621 108.269 14.5341 108.269 16.3295C108.269 18.1174 107.913 19.6894 107.201 21.0455C106.497 22.3939 105.485 23.447 104.167 24.2045C102.856 24.9545 101.284 25.3295 99.4511 25.3295ZM99.4852 21.1364C100.152 21.1364 100.716 20.9318 101.178 20.5227C101.64 20.1136 101.993 19.5455 102.235 18.8182C102.485 18.0909 102.61 17.25 102.61 16.2955C102.61 15.3258 102.485 14.4773 102.235 13.75C101.993 13.0227 101.64 12.4545 101.178 12.0455C100.716 11.6364 100.152 11.4318 99.4852 11.4318C98.7958 11.4318 98.2124 11.6364 97.7352 12.0455C97.2655 12.4545 96.9056 13.0227 96.6556 13.75C96.4132 14.4773 96.292 15.3258 96.292 16.2955C96.292 17.25 96.4132 18.0909 96.6556 18.8182C96.9056 19.5455 97.2655 20.1136 97.7352 20.5227C98.2124 20.9318 98.7958 21.1364 99.4852 21.1364ZM119.264 25.3295C117.43 25.3295 115.854 24.9545 114.536 24.2045C113.226 23.447 112.214 22.3939 111.502 21.0455C110.798 19.6894 110.445 18.1174 110.445 16.3295C110.445 14.5341 110.798 12.9621 111.502 11.6136C112.214 10.2576 113.226 9.20454 114.536 8.45454C115.854 7.69697 117.43 7.31818 119.264 7.31818C121.097 7.31818 122.669 7.69697 123.979 8.45454C125.298 9.20454 126.309 10.2576 127.014 11.6136C127.726 12.9621 128.082 14.5341 128.082 16.3295C128.082 18.1174 127.726 19.6894 127.014 21.0455C126.309 22.3939 125.298 23.447 123.979 24.2045C122.669 24.9545 121.097 25.3295 119.264 25.3295ZM119.298 21.1364C119.964 21.1364 120.529 20.9318 120.991 20.5227C121.453 20.1136 121.805 19.5455 122.048 18.8182C122.298 18.0909 122.423 17.25 122.423 16.2955C122.423 15.3258 122.298 14.4773 122.048 13.75C121.805 13.0227 121.453 12.4545 120.991 12.0455C120.529 11.6364 119.964 11.4318 119.298 11.4318C118.608 11.4318 118.025 11.6364 117.548 12.0455C117.078 12.4545 116.718 13.0227 116.468 13.75C116.226 14.4773 116.104 15.3258 116.104 16.2955C116.104 17.25 116.226 18.0909 116.468 18.8182C116.718 19.5455 117.078 20.1136 117.548 20.5227C118.025 20.9318 118.608 21.1364 119.298 21.1364ZM135.94 20.4205L135.962 13.7955H136.735L141.644 7.54545H147.94L140.644 16.5H139.178L135.94 20.4205ZM130.928 25V1.72727H136.485V25H130.928ZM141.769 25L137.201 17.75L140.86 13.8068L148.19 25H141.769ZM155.758 25V17.9091H157.95V19.2017H158.024C158.153 18.7339 158.364 18.3861 158.657 18.1584C158.949 17.9276 159.289 17.8121 159.677 17.8121C159.782 17.8121 159.889 17.8198 160 17.8352C160.111 17.8475 160.214 17.8675 160.309 17.8952V19.8572C160.202 19.8203 160.06 19.7911 159.885 19.7695C159.712 19.748 159.558 19.7372 159.423 19.7372C159.155 19.7372 158.914 19.7972 158.698 19.9173C158.486 20.0342 158.318 20.1989 158.195 20.4112C158.075 20.6205 158.015 20.8667 158.015 21.1499V25H155.758ZM164.176 25.1339C163.434 25.1339 162.794 24.9877 162.255 24.6953C161.72 24.3999 161.307 23.9798 161.018 23.435C160.732 22.8872 160.589 22.2363 160.589 21.4822C160.589 20.7498 160.733 20.1096 161.023 19.5618C161.312 19.0109 161.72 18.5831 162.246 18.2784C162.772 17.9706 163.392 17.8168 164.106 17.8168C164.611 17.8168 165.073 17.8952 165.491 18.0522C165.91 18.2092 166.272 18.4415 166.576 18.7493C166.881 19.0571 167.118 19.4371 167.287 19.8896C167.456 20.3389 167.541 20.8544 167.541 21.4361V21.9993H161.378V20.6882H165.441C165.438 20.4482 165.381 20.2343 165.27 20.0465C165.159 19.8588 165.007 19.7126 164.813 19.608C164.622 19.5002 164.402 19.4464 164.153 19.4464C163.9 19.4464 163.674 19.5033 163.474 19.6172C163.274 19.728 163.115 19.8803 162.998 20.0742C162.882 20.265 162.82 20.482 162.814 20.7251V22.0593C162.814 22.3486 162.871 22.6025 162.985 22.821C163.099 23.0365 163.26 23.2042 163.469 23.3242C163.679 23.4442 163.928 23.5043 164.217 23.5043C164.417 23.5043 164.599 23.4766 164.762 23.4212C164.925 23.3658 165.065 23.2842 165.182 23.1765C165.299 23.0688 165.387 22.9364 165.445 22.7795L167.518 22.8395C167.432 23.3042 167.243 23.7089 166.95 24.0536C166.661 24.3952 166.281 24.6615 165.81 24.8523C165.339 25.04 164.794 25.1339 164.176 25.1339ZM174.885 20.0742L172.812 20.1296C172.79 19.9819 172.732 19.8511 172.637 19.7372C172.541 19.6203 172.416 19.5295 172.263 19.4648C172.112 19.3971 171.936 19.3633 171.736 19.3633C171.475 19.3633 171.252 19.4156 171.067 19.5202C170.885 19.6249 170.796 19.7665 170.799 19.945C170.796 20.0835 170.852 20.2035 170.965 20.305C171.082 20.4066 171.29 20.4882 171.589 20.5497L172.955 20.8082C173.663 20.9437 174.189 21.1683 174.534 21.4822C174.882 21.7962 175.057 22.2116 175.06 22.7287C175.057 23.215 174.912 23.6381 174.626 23.9982C174.343 24.3583 173.955 24.6384 173.463 24.8384C172.97 25.0354 172.407 25.1339 171.773 25.1339C170.761 25.1339 169.962 24.9261 169.377 24.5107C168.796 24.0921 168.463 23.532 168.38 22.8303L170.61 22.7749C170.659 23.0334 170.787 23.2304 170.993 23.3658C171.199 23.5012 171.462 23.5689 171.782 23.5689C172.072 23.5689 172.307 23.515 172.489 23.4073C172.67 23.2996 172.763 23.1565 172.766 22.978C172.763 22.8179 172.692 22.6902 172.553 22.5948C172.415 22.4963 172.198 22.4194 171.903 22.364L170.665 22.1286C169.954 21.9993 169.425 21.7608 169.077 21.413C168.729 21.0621 168.557 20.6159 168.56 20.0742C168.557 19.6003 168.683 19.1955 168.939 18.8601C169.194 18.5215 169.557 18.263 170.028 18.0845C170.499 17.906 171.055 17.8168 171.695 17.8168C172.655 17.8168 173.412 18.0183 173.966 18.4215C174.52 18.8216 174.826 19.3725 174.885 20.0742ZM180.747 21.9393V17.9091H182.999V25H180.848V23.6797H180.774C180.617 24.1136 180.35 24.4583 179.971 24.7138C179.595 24.9661 179.142 25.0923 178.609 25.0923C178.126 25.0923 177.701 24.9815 177.335 24.7599C176.969 24.5384 176.684 24.229 176.481 23.832C176.278 23.4319 176.175 22.9641 176.172 22.4286V17.9091H178.429V21.9854C178.432 22.3701 178.534 22.6733 178.734 22.8949C178.934 23.1165 179.206 23.2273 179.551 23.2273C179.776 23.2273 179.977 23.178 180.156 23.0795C180.337 22.978 180.48 22.8318 180.585 22.641C180.693 22.4471 180.747 22.2132 180.747 21.9393ZM186.694 15.5455V25H184.436V15.5455H186.694ZM192.133 17.9091V19.571H187.66V17.9091H192.133ZM188.597 16.2102H190.854V22.7702C190.854 22.9087 190.876 23.0211 190.919 23.1072C190.965 23.1903 191.031 23.2504 191.117 23.2873C191.204 23.3211 191.307 23.3381 191.427 23.3381C191.513 23.3381 191.604 23.3304 191.699 23.315C191.798 23.2965 191.871 23.2811 191.921 23.2688L192.262 24.8984C192.155 24.9292 192.002 24.9677 191.805 25.0138C191.611 25.06 191.379 25.0893 191.108 25.1016C190.579 25.1262 190.125 25.0646 189.746 24.9169C189.371 24.7661 189.083 24.5322 188.883 24.2152C188.686 23.8982 188.591 23.4996 188.597 23.0195V16.2102ZM199.387 20.0742L197.314 20.1296C197.292 19.9819 197.234 19.8511 197.138 19.7372C197.043 19.6203 196.918 19.5295 196.765 19.4648C196.614 19.3971 196.438 19.3633 196.238 19.3633C195.977 19.3633 195.754 19.4156 195.569 19.5202C195.387 19.6249 195.298 19.7665 195.301 19.945C195.298 20.0835 195.353 20.2035 195.467 20.305C195.584 20.4066 195.792 20.4882 196.091 20.5497L197.457 20.8082C198.165 20.9437 198.691 21.1683 199.036 21.4822C199.384 21.7962 199.559 22.2116 199.562 22.7287C199.559 23.215 199.414 23.6381 199.128 23.9982C198.845 24.3583 198.457 24.6384 197.965 24.8384C197.472 25.0354 196.909 25.1339 196.275 25.1339C195.263 25.1339 194.464 24.9261 193.879 24.5107C193.298 24.0921 192.965 23.532 192.882 22.8303L195.112 22.7749C195.161 23.0334 195.289 23.2304 195.495 23.3658C195.701 23.5012 195.964 23.5689 196.284 23.5689C196.574 23.5689 196.809 23.515 196.991 23.4073C197.172 23.2996 197.265 23.1565 197.268 22.978C197.265 22.8179 197.194 22.6902 197.055 22.5948C196.917 22.4963 196.7 22.4194 196.404 22.364L195.167 22.1286C194.456 21.9993 193.927 21.7608 193.579 21.413C193.231 21.0621 193.059 20.6159 193.062 20.0742C193.059 19.6003 193.185 19.1955 193.441 18.8601C193.696 18.5215 194.059 18.263 194.53 18.0845C195.001 17.906 195.557 17.8168 196.197 17.8168C197.157 17.8168 197.914 18.0183 198.468 18.4215C199.022 18.8216 199.328 19.3725 199.387 20.0742Z" fill="#0668FC"/>
</svg>
