<svg width="21" height="21" viewBox="0 0 21 21" fill="none" xmlns="http://www.w3.org/2000/svg">
<path fill-rule="evenodd" clip-rule="evenodd" d="M21 10.5C21 16.299 16.299 21 10.5 21C4.70101 21 0 16.299 0 10.5C0 4.70101 4.70101 0 10.5 0C16.299 0 21 4.70101 21 10.5ZM9.67952 5.65507C9.67952 5.20191 10.0469 4.83455 10.5 4.83455C10.9532 4.83455 11.3206 5.20191 11.3206 5.65507V9.67952H15.345C15.7982 9.67952 16.1655 10.0469 16.1655 10.5C16.1655 10.9532 15.7982 11.3206 15.345 11.3206H11.3206V15.345C11.3206 15.7981 10.9532 16.1655 10.5 16.1655C10.0469 16.1655 9.67952 15.7981 9.67952 15.345V11.3206H5.65511C5.20195 11.3206 4.83459 10.9532 4.83459 10.5C4.83459 10.0469 5.20195 9.67952 5.65511 9.67952H9.67952V5.65507Z" fill="black"/>
</svg>
