<svg width="32" height="36" viewBox="0 0 32 36" fill="none" xmlns="http://www.w3.org/2000/svg">
<path d="M11.4286 2.25V4.5H20.5714V2.25C20.5714 1.00758 21.5929 0 22.8571 0C24.1214 0 25.1429 1.00758 25.1429 2.25V4.5H28.5714C30.4643 4.5 32 6.01102 32 7.875V11.25H0V7.875C0 6.01102 1.535 4.5 3.42857 4.5H6.85714V2.25C6.85714 1.00758 7.87857 0 9.14286 0C10.4071 0 11.4286 1.00758 11.4286 2.25ZM0 13.5H32V32.625C32 34.4883 30.4643 36 28.5714 36H3.42857C1.535 36 0 34.4883 0 32.625V13.5ZM4.57143 21.375C4.57143 21.9938 5.08286 22.5 5.71429 22.5H8C8.62857 22.5 9.14286 21.9938 9.14286 21.375V19.125C9.14286 18.5062 8.62857 18 8 18H5.71429C5.08286 18 4.57143 18.5062 4.57143 19.125V21.375ZM13.7143 21.375C13.7143 21.9938 14.2286 22.5 14.8571 22.5H17.1429C17.7714 22.5 18.2857 21.9938 18.2857 21.375V19.125C18.2857 18.5062 17.7714 18 17.1429 18H14.8571C14.2286 18 13.7143 18.5062 13.7143 19.125V21.375ZM24 18C23.3714 18 22.8571 18.5062 22.8571 19.125V21.375C22.8571 21.9938 23.3714 22.5 24 22.5H26.2857C26.9143 22.5 27.4286 21.9938 27.4286 21.375V19.125C27.4286 18.5062 26.9143 18 26.2857 18H24ZM4.57143 30.375C4.57143 30.9938 5.08286 31.5 5.71429 31.5H8C8.62857 31.5 9.14286 30.9938 9.14286 30.375V28.125C9.14286 27.5062 8.62857 27 8 27H5.71429C5.08286 27 4.57143 27.5062 4.57143 28.125V30.375ZM14.8571 27C14.2286 27 13.7143 27.5062 13.7143 28.125V30.375C13.7143 30.9938 14.2286 31.5 14.8571 31.5H17.1429C17.7714 31.5 18.2857 30.9938 18.2857 30.375V28.125C18.2857 27.5062 17.7714 27 17.1429 27H14.8571ZM22.8571 30.375C22.8571 30.9938 23.3714 31.5 24 31.5H26.2857C26.9143 31.5 27.4286 30.9938 27.4286 30.375V28.125C27.4286 27.5062 26.9143 27 26.2857 27H24C23.3714 27 22.8571 27.5062 22.8571 28.125V30.375Z" fill="black"/>
</svg>
