<svg width="29" height="22" viewBox="0 0 29 22" fill="none" xmlns="http://www.w3.org/2000/svg">
<path d="M-5.04925e-05 5.07812C-5.04925e-05 6.15674 0.870575 7.03125 1.94439 7.03125C1.95645 7.03125 1.96652 7.02507 1.97857 7.02488L4.43441 20.5942C4.5694 21.333 5.21106 21.875 5.96454 21.875H22.0354C22.7869 21.875 23.4315 21.335 23.5656 20.5923L26.021 7.02637C26.0331 7.02637 26.0434 7.03125 26.0993 7.03125C27.1731 7.03125 28.0437 6.15674 28.0437 5.07812C28.0437 3.99951 27.1293 3.125 26.0993 3.125C25.0692 3.125 24.1548 3.99951 24.1548 5.07812C24.1548 5.51748 24.326 5.90283 24.5698 6.229L20.2128 9.72998C19.4394 10.3516 18.2927 10.0983 17.8498 9.2085L15.0498 3.5835C15.5993 3.23926 15.9881 2.65332 15.9881 1.95312C15.9881 0.874512 15.0743 0 14 0C12.9256 0 12.0993 0.874512 12.0993 1.95312C12.0993 2.65332 12.4863 3.23926 13.0375 3.58398L10.2375 9.20898C9.79456 10.0986 8.64738 10.3516 7.87446 9.73047L3.51745 6.22949C3.7187 5.90332 3.88884 5.47363 3.88884 5.07812C3.88884 3.99902 3.0187 3.125 1.94439 3.125C0.870088 3.125 -5.04925e-05 3.99902 -5.04925e-05 5.07812Z" fill="black"/>
</svg>
