<svg width="26" height="27" viewBox="0 0 26 27" fill="none" xmlns="http://www.w3.org/2000/svg">
<path d="M24.8182 4.69565H17.7273V3.52174C17.7273 2.58772 17.3537 1.69195 16.6888 1.03149C16.0239 0.371039 15.1221 0 14.1818 0L11.8182 0C10.8779 0 9.97607 0.371039 9.31117 1.03149C8.64626 1.69195 8.27273 2.58772 8.27273 3.52174V4.69565H1.18182C0.86838 4.69565 0.56778 4.81933 0.346146 5.03948C0.124513 5.25964 0 5.55822 0 5.86957C0 6.18091 0.124513 6.4795 0.346146 6.69965C0.56778 6.9198 0.86838 7.04348 1.18182 7.04348H3.54545V23.4783C3.54545 24.4123 3.91899 25.3081 4.58389 25.9685C5.2488 26.629 6.1506 27 7.09091 27H18.9091C19.8494 27 20.7512 26.629 21.4161 25.9685C22.081 25.3081 22.4545 24.4123 22.4545 23.4783V7.04348H24.8182C25.1316 7.04348 25.4322 6.9198 25.6539 6.69965C25.8755 6.4795 26 6.18091 26 5.86957C26 5.55822 25.8755 5.25964 25.6539 5.03948C25.4322 4.81933 25.1316 4.69565 24.8182 4.69565ZM10.6364 3.52174C10.6364 3.2104 10.7609 2.91181 10.9825 2.69166C11.2041 2.47151 11.5047 2.34783 11.8182 2.34783H14.1818C14.4953 2.34783 14.7959 2.47151 15.0175 2.69166C15.2391 2.91181 15.3636 3.2104 15.3636 3.52174V4.69565H10.6364V3.52174ZM9.45454 21.1304C9.45454 21.4418 9.33003 21.7404 9.1084 21.9605C8.88676 22.1807 8.58616 22.3043 8.27273 22.3043C7.95929 22.3043 7.65869 22.1807 7.43706 21.9605C7.21542 21.7404 7.09091 21.4418 7.09091 21.1304V11.7391C7.09091 11.4278 7.21542 11.1292 7.43706 10.909C7.65869 10.6889 7.95929 10.5652 8.27273 10.5652C8.58616 10.5652 8.88676 10.6889 9.1084 10.909C9.33003 11.1292 9.45454 11.4278 9.45454 11.7391V21.1304ZM14.1818 21.1304C14.1818 21.4418 14.0573 21.7404 13.8357 21.9605C13.614 22.1807 13.3134 22.3043 13 22.3043C12.6866 22.3043 12.386 22.1807 12.1643 21.9605C11.9427 21.7404 11.8182 21.4418 11.8182 21.1304V11.7391C11.8182 11.4278 11.9427 11.1292 12.1643 10.909C12.386 10.6889 12.6866 10.5652 13 10.5652C13.3134 10.5652 13.614 10.6889 13.8357 10.909C14.0573 11.1292 14.1818 11.4278 14.1818 11.7391V21.1304ZM18.9091 21.1304C18.9091 21.4418 18.7846 21.7404 18.5629 21.9605C18.3413 22.1807 18.0407 22.3043 17.7273 22.3043C17.4138 22.3043 17.1132 22.1807 16.8916 21.9605C16.67 21.7404 16.5455 21.4418 16.5455 21.1304V11.7391C16.5455 11.4278 16.67 11.1292 16.8916 10.909C17.1132 10.6889 17.4138 10.5652 17.7273 10.5652C18.0407 10.5652 18.3413 10.6889 18.5629 10.909C18.7846 11.1292 18.9091 11.4278 18.9091 11.7391V21.1304Z" fill="black"/>
</svg>
