<svg width="23" height="25" viewBox="0 0 23 25" fill="none" xmlns="http://www.w3.org/2000/svg">
<path d="M10.8178 0C7.69475 0.00914024 4.6944 1.24864 2.43644 3.4625V1.25C2.43644 0.918479 2.30809 0.600537 2.07963 0.366116C1.85117 0.131696 1.54131 0 1.21822 0C0.895128 0 0.585269 0.131696 0.356808 0.366116C0.128348 0.600537 0 0.918479 0 1.25V6.875C0 7.20652 0.128348 7.52446 0.356808 7.75888C0.585269 7.9933 0.895128 8.125 1.21822 8.125H6.70021C7.0233 8.125 7.33316 7.9933 7.56162 7.75888C7.79008 7.52446 7.91843 7.20652 7.91843 6.875C7.91843 6.54348 7.79008 6.22554 7.56162 5.99112C7.33316 5.7567 7.0233 5.625 6.70021 5.625H3.77648C4.88714 4.42126 6.27201 3.5197 7.80651 3.00142C9.34101 2.48314 10.977 2.3644 12.5673 2.65588C14.1576 2.94736 15.6524 3.63991 16.9172 4.67124C18.1819 5.70257 19.1769 7.04032 19.8128 8.56416C20.4486 10.088 20.7053 11.7501 20.5598 13.401C20.4142 15.0519 19.871 16.6398 18.979 18.0218C18.0869 19.4038 16.8741 20.5366 15.4495 21.3183C14.0249 22.1 12.4333 22.5061 10.8178 22.5C10.4947 22.5 10.1848 22.6317 9.95639 22.8661C9.72792 23.1005 9.59958 23.4185 9.59958 23.75C9.59958 24.0815 9.72792 24.3995 9.95639 24.6339C10.1848 24.8683 10.4947 25 10.8178 25C14.0487 25 17.1473 23.683 19.4319 21.3388C21.7165 18.9946 23 15.8152 23 12.5C23 9.18479 21.7165 6.00537 19.4319 3.66117C17.1473 1.31696 14.0487 0 10.8178 0ZM10.8178 7.5C10.4947 7.5 10.1848 7.6317 9.95639 7.86612C9.72792 8.10054 9.59958 8.41848 9.59958 8.75V12.5C9.59958 12.8315 9.72792 13.1495 9.95639 13.3839C10.1848 13.6183 10.4947 13.75 10.8178 13.75H13.2542C13.5773 13.75 13.8872 13.6183 14.1156 13.3839C14.3441 13.1495 14.4725 12.8315 14.4725 12.5C14.4725 12.1685 14.3441 11.8505 14.1156 11.6161C13.8872 11.3817 13.5773 11.25 13.2542 11.25H12.036V8.75C12.036 8.41848 11.9077 8.10054 11.6792 7.86612C11.4507 7.6317 11.1409 7.5 10.8178 7.5Z" fill="#6563FF"/>
</svg>
