<svg width="26" height="32" viewBox="0 0 26 32" fill="none" xmlns="http://www.w3.org/2000/svg">
<path d="M24.4375 30.8126H1.06246C0.670751 30.8126 0.354126 30.4952 0.354126 30.1042V3.18758C0.354126 2.79658 0.670751 2.47925 1.06246 2.47925H24.4375C24.8292 2.47925 25.1458 2.79658 25.1458 3.18758V30.1042C25.1458 30.4952 24.8292 30.8126 24.4375 30.8126Z" fill="#8C9EFF"/>
<path d="M24.4375 31.1667H1.0625C0.476708 31.1667 0 30.69 0 30.1042V3.1875C0 2.60171 0.476708 2.125 1.0625 2.125H6.05058C6.24608 2.125 6.40475 2.28367 6.40475 2.47917C6.40475 2.67467 6.24608 2.83333 6.05058 2.83333H1.0625C0.867 2.83333 0.708333 2.992 0.708333 3.1875V30.1042C0.708333 30.2997 0.867 30.4583 1.0625 30.4583H24.4375C24.633 30.4583 24.7917 30.2997 24.7917 30.1042V3.1875C24.7917 2.992 24.633 2.83333 24.4375 2.83333H19.5096C19.3141 2.83333 19.1555 2.67467 19.1555 2.47917C19.1555 2.28367 19.3141 2.125 19.5096 2.125H24.4375C25.0233 2.125 25.5 2.60171 25.5 3.1875V30.1042C25.5 30.69 25.0233 31.1667 24.4375 31.1667Z" fill="#0277BD"/>
<path d="M18.6426 28.6874H2.83329C2.63779 28.6874 2.47913 28.5288 2.47913 28.3333V4.24992C2.47913 4.05442 2.63779 3.89575 2.83329 3.89575H22.6666C22.8621 3.89575 23.0208 4.05442 23.0208 4.24992V24.98C23.0208 25.0848 22.974 25.1847 22.8933 25.252L18.8693 28.6053C18.8062 28.6584 18.7262 28.6874 18.6426 28.6874Z" fill="#F5F5F5"/>
<path d="M18.8948 28.3333H2.83337V4.25H6.02087C6.21637 4.25 6.37504 4.40867 6.37504 4.60417C6.37504 4.79967 6.21637 4.95833 6.02087 4.95833H3.54171V27.625H18.6469L21.9584 24.9758V4.95833H19.4792C19.2837 4.95833 19.125 4.79967 19.125 4.60417C19.125 4.40867 19.2837 4.25 19.4792 4.25H22.6667V25.3165L18.8948 28.3333Z" fill="white"/>
<path d="M18.6426 29.0417H2.83333C2.44304 29.0417 2.125 28.7237 2.125 28.3334V4.25008C2.125 3.85979 2.44304 3.54175 2.83333 3.54175H6.02083C6.21633 3.54175 6.375 3.70041 6.375 3.89591C6.375 4.09141 6.21637 4.25 6.02087 4.25H2.83337V28.3333L18.6426 28.3334L22.6667 24.9802V4.25H19.4792C19.2837 4.25 19.125 4.09141 19.125 3.89591C19.125 3.70041 19.2837 3.54175 19.4792 3.54175H22.6667C23.057 3.54175 23.375 3.85979 23.375 4.25008V24.9802C23.375 25.1898 23.2829 25.3882 23.1214 25.5235L19.0967 28.8774C18.9692 28.9837 18.8084 29.0417 18.6426 29.0417Z" fill="#0277BD"/>
<path d="M1.06254 29.0417C0.867041 29.0417 0.708374 28.883 0.708374 28.6875V4.60417C0.708374 4.40867 0.867041 4.25 1.06254 4.25C1.25804 4.25 1.41671 4.40867 1.41671 4.60417V28.6875C1.41671 28.883 1.25804 29.0417 1.06254 29.0417Z" fill="#E8EAF6"/>
<path d="M18.7708 28.3852V25.5002C18.7708 25.3047 18.9294 25.146 19.1249 25.146H22.629C22.7622 25.146 22.8217 25.3117 22.7197 25.3967L19.0031 28.4943C18.911 28.5708 18.7708 28.5056 18.7708 28.3852Z" fill="#EEEEEE"/>
<path d="M18.9139 28.8817C18.8423 28.8817 18.7701 28.8661 18.7021 28.8342C18.5257 28.7513 18.4166 28.5799 18.4166 28.3851V25.5001C18.4166 25.1098 18.7347 24.7917 19.125 24.7917H22.6291C22.8409 24.7917 23.0243 24.9207 23.0959 25.1197C23.1674 25.3187 23.1086 25.5341 22.9457 25.6694L19.2298 28.7662C19.1384 28.842 19.0272 28.8817 18.9139 28.8817ZM19.125 25.5001V27.9318L22.0426 25.5001H19.125Z" fill="#0277BD"/>
<path d="M14.7552 1.77091C14.4626 0.947123 13.6842 0.354248 12.7605 0.354248C11.8368 0.354248 11.0591 0.947123 10.7665 1.77091H7.80216C7.60737 1.77091 7.448 1.92958 7.448 2.12508V4.95841C7.448 5.15391 7.60737 5.31258 7.80216 5.31258H17.7188C17.9143 5.31258 18.073 5.15391 18.073 4.95841V2.12508C18.073 1.92958 17.9143 1.77091 17.7188 1.77091H14.7552Z" fill="#EEEEEE"/>
<path d="M17.7189 5.66667H7.80221C7.41191 5.66667 7.09387 5.34863 7.09387 4.95833V2.125C7.09387 1.73471 7.41191 1.41667 7.80221 1.41667H10.53C10.9373 0.560292 11.8043 0 12.7605 0C13.7175 0 14.5845 0.560292 14.9918 1.41667H17.7189C18.1092 1.41667 18.4272 1.73471 18.4272 2.125V4.95833C18.4272 5.34863 18.1092 5.66667 17.7189 5.66667ZM7.80221 2.125V4.95833H17.7189V2.125H14.7552C14.6057 2.125 14.4719 2.03079 14.4216 1.88912C14.1701 1.18292 13.5029 0.708333 12.7605 0.708333C12.0182 0.708333 11.351 1.18292 11.1002 1.88912C11.0499 2.03079 10.916 2.125 10.7659 2.125H7.80221Z" fill="#0277BD"/>
<path d="M8.15641 4.24992C7.96091 4.24992 7.80225 4.09125 7.80225 3.89575L7.80221 2.125H10.7659C10.916 2.125 11.0499 2.03079 11.1002 1.88912C11.351 1.18292 12.0182 0.708333 12.7605 0.708333C12.956 0.708333 13.1147 0.866919 13.1147 1.06242C13.1147 1.25792 12.9561 1.41659 12.7606 1.41659C12.3179 1.41659 11.9184 1.70204 11.7668 2.12634C11.6166 2.54921 11.2143 2.83325 10.7652 2.83325H8.50987V3.89575C8.51058 4.09125 8.35191 4.24992 8.15641 4.24992Z" fill="white"/>
<path d="M8.85413 23.3749H6.02079C5.82529 23.3749 5.66663 23.2163 5.66663 23.0208V20.1874C5.66663 19.9919 5.82529 19.8333 6.02079 19.8333H8.85413C9.04963 19.8333 9.20829 19.9919 9.20829 20.1874V23.0208C9.20829 23.2163 9.04963 23.3749 8.85413 23.3749ZM6.37496 22.6666H8.49996V20.5416H6.37496V22.6666Z" fill="#0277BD"/>
<path d="M8.85413 17.7084H6.02079C5.82529 17.7084 5.66663 17.5497 5.66663 17.3542V14.5209C5.66663 14.3254 5.82529 14.1667 6.02079 14.1667H8.85413C9.04963 14.1667 9.20829 14.3254 9.20829 14.5209V17.3542C9.20829 17.5497 9.04963 17.7084 8.85413 17.7084ZM6.37496 17.0001H8.49996V14.8751H6.37496V17.0001Z" fill="#0277BD"/>
<path d="M8.85413 12.0417H6.02079C5.82529 12.0417 5.66663 11.883 5.66663 11.6875V8.85417C5.66663 8.65867 5.82529 8.5 6.02079 8.5H8.85413C9.04963 8.5 9.20829 8.65867 9.20829 8.85417V11.6875C9.20829 11.883 9.04963 12.0417 8.85413 12.0417ZM6.37496 11.3333H8.49996V9.20833H6.37496V11.3333Z" fill="#0277BD"/>
<path d="M19.4792 22.6666H10.9792C10.7837 22.6666 10.625 22.5079 10.625 22.3124C10.625 22.1169 10.7837 21.9583 10.9792 21.9583H19.4792C19.6747 21.9583 19.8333 22.1169 19.8333 22.3124C19.8333 22.5079 19.6747 22.6666 19.4792 22.6666Z" fill="#0277BD"/>
<path d="M19.4792 21.2501H10.9792C10.7837 21.2501 10.625 21.0914 10.625 20.8959C10.625 20.7004 10.7837 20.5417 10.9792 20.5417H19.4792C19.6747 20.5417 19.8333 20.7004 19.8333 20.8959C19.8333 21.0914 19.6747 21.2501 19.4792 21.2501Z" fill="#0277BD"/>
<path d="M19.4792 17.0001H10.9792C10.7837 17.0001 10.625 16.8414 10.625 16.6459C10.625 16.4504 10.7837 16.2917 10.9792 16.2917H19.4792C19.6747 16.2917 19.8333 16.4504 19.8333 16.6459C19.8333 16.8414 19.6747 17.0001 19.4792 17.0001Z" fill="#0277BD"/>
<path d="M19.4792 15.5833H10.9792C10.7837 15.5833 10.625 15.4247 10.625 15.2292C10.625 15.0337 10.7837 14.875 10.9792 14.875H19.4792C19.6747 14.875 19.8333 15.0337 19.8333 15.2292C19.8333 15.4247 19.6747 15.5833 19.4792 15.5833Z" fill="#0277BD"/>
<path d="M19.4792 11.3333H10.9792C10.7837 11.3333 10.625 11.1747 10.625 10.9792C10.625 10.7837 10.7837 10.625 10.9792 10.625H19.4792C19.6747 10.625 19.8333 10.7837 19.8333 10.9792C19.8333 11.1747 19.6747 11.3333 19.4792 11.3333Z" fill="#0277BD"/>
<path d="M19.4792 9.91659H10.9792C10.7837 9.91659 10.625 9.75792 10.625 9.56242C10.625 9.36692 10.7837 9.20825 10.9792 9.20825H19.4792C19.6747 9.20825 19.8333 9.36692 19.8333 9.56242C19.8333 9.75792 19.6747 9.91659 19.4792 9.91659Z" fill="#0277BD"/>
</svg>
