<svg width="22" height="22" viewBox="0 0 22 22" fill="none" xmlns="http://www.w3.org/2000/svg">
<path d="M21.552 19.6905L16.5902 14.7287C17.7848 13.1384 18.4297 11.2027 18.4275 9.21375C18.4275 4.13332 14.2942 0 9.21375 0C4.13332 0 0 4.13332 0 9.21375C0 14.2942 4.13332 18.4275 9.21375 18.4275C11.2027 18.4297 13.1384 17.7848 14.7287 16.5902L19.6905 21.552C19.9417 21.7765 20.2692 21.8964 20.606 21.887C20.9427 21.8775 21.2631 21.7395 21.5013 21.5013C21.7395 21.2631 21.8775 20.9427 21.887 20.606C21.8964 20.2692 21.7765 19.9417 21.552 19.6905ZM2.6325 9.21375C2.6325 7.9121 3.01848 6.63969 3.74164 5.5574C4.4648 4.47512 5.49265 3.63159 6.69522 3.13347C7.89778 2.63535 9.22105 2.50502 10.4977 2.75896C11.7743 3.0129 12.947 3.6397 13.8674 4.5601C14.7878 5.48051 15.4146 6.65317 15.6685 7.92981C15.9225 9.20645 15.7922 10.5297 15.294 11.7323C14.7959 12.9349 13.9524 13.9627 12.8701 14.6859C11.7878 15.409 10.5154 15.795 9.21375 15.795C7.46894 15.7929 5.79619 15.0989 4.56242 13.8651C3.32865 12.6313 2.63459 10.9586 2.6325 9.21375Z" fill="black"/>
</svg>
